<?xml version="1.0" encoding="utf-8"?>
<svg viewBox="-300 0 1000 400" xmlns="http://www.w3.org/2000/svg">
  <g fill="#61dafb" transform="matrix(1, 0, 0, 1, -933.049072, -2318.733398)">
    <path d="M 775.625 2578.81 L 708.16 2578.81 L 708.16 2695 L 670.088 2695 L 670.088 2407.78 L 765.17 2407.78 C 797.521 2407.78 822.377 2415.15 839.736 2429.88 C 857.227 2444.6 865.973 2466.04 865.973 2494.18 C 865.973 2512.07 861.107 2527.65 851.375 2540.94 C 841.775 2554.22 828.361 2564.15 811.133 2570.72 L 878.598 2692.63 L 878.598 2695 L 837.961 2695 L 775.625 2578.81 Z M 708.16 2547.84 L 766.354 2547.84 C 785.16 2547.84 800.086 2542.97 811.133 2533.24 C 822.311 2523.51 827.9 2510.49 827.9 2494.18 C 827.9 2476.43 822.574 2462.82 811.922 2453.35 C 801.401 2443.88 786.146 2439.08 766.156 2438.95 L 708.16 2438.95 L 708.16 2547.84 Z M 1002.09 2698.95 C 973.154 2698.95 949.613 2689.48 931.465 2670.54 C 913.316 2651.47 904.242 2626.02 904.242 2594.2 L 904.242 2587.49 C 904.242 2566.32 908.253 2547.45 916.275 2530.88 C 924.429 2514.17 935.739 2501.15 950.205 2491.82 C 964.803 2482.35 980.584 2477.61 997.549 2477.61 C 1025.3 2477.61 1046.87 2486.75 1062.25 2505.03 C 1077.64 2523.31 1085.33 2549.48 1085.33 2583.54 L 1085.33 2598.73 L 940.736 2598.73 C 941.262 2619.78 947.378 2636.81 959.082 2649.83 C 970.918 2662.71 985.91 2669.16 1004.06 2669.16 C 1016.95 2669.16 1027.86 2666.53 1036.8 2661.27 C 1045.75 2656.01 1053.57 2649.04 1060.28 2640.36 L 1082.57 2657.72 C 1064.68 2685.2 1037.86 2698.95 1002.09 2698.95 Z M 997.549 2507.6 C 982.82 2507.6 970.458 2512.99 960.463 2523.77 C 950.468 2534.43 944.287 2549.42 941.92 2568.75 L 1048.84 2568.75 L 1048.84 2565.99 C 1047.79 2547.45 1042.79 2533.11 1033.85 2522.98 C 1024.9 2512.73 1012.8 2507.6 997.549 2507.6 Z M 1259.52 2695 C 1257.41 2690.79 1255.7 2683.3 1254.39 2672.51 C 1237.42 2690.13 1217.17 2698.95 1193.63 2698.95 C 1172.59 2698.95 1155.3 2693.03 1141.75 2681.19 C 1128.34 2669.22 1121.63 2654.1 1121.63 2635.82 C 1121.63 2613.6 1130.05 2596.37 1146.88 2584.14 C 1163.84 2571.77 1187.65 2565.59 1218.29 2565.59 L 1253.8 2565.59 L 1253.8 2548.83 C 1253.8 2536.07 1249.98 2525.94 1242.36 2518.45 C 1234.73 2510.82 1223.48 2507.01 1208.62 2507.01 C 1195.6 2507.01 1184.69 2510.29 1175.88 2516.87 C 1167.07 2523.44 1162.66 2531.4 1162.66 2540.74 L 1125.97 2540.74 C 1125.97 2530.09 1129.72 2519.83 1137.21 2509.96 C 1144.84 2499.97 1155.1 2492.08 1167.99 2486.29 C 1181.01 2480.51 1195.27 2477.61 1210.79 2477.61 C 1235.39 2477.61 1254.65 2483.79 1268.59 2496.16 C 1282.53 2508.39 1289.76 2525.29 1290.29 2546.85 L 1290.29 2645.09 C 1290.29 2664.69 1292.79 2680.27 1297.79 2691.84 L 1297.79 2695 L 1259.52 2695 Z M 1198.96 2667.19 C 1210.4 2667.19 1221.25 2664.23 1231.51 2658.31 C 1241.76 2652.39 1249.19 2644.7 1253.8 2635.23 L 1253.8 2591.44 L 1225.19 2591.44 C 1180.48 2591.44 1158.12 2604.52 1158.12 2630.69 C 1158.12 2642.13 1161.94 2651.08 1169.56 2657.52 C 1177.19 2663.96 1186.99 2667.19 1198.96 2667.19 Z M 1433.11 2669.16 C 1446.13 2669.16 1457.51 2665.21 1467.24 2657.32 C 1476.97 2649.43 1482.36 2639.57 1483.41 2627.73 L 1517.94 2627.73 C 1517.28 2639.96 1513.07 2651.6 1505.31 2662.65 C 1497.55 2673.7 1487.16 2682.51 1474.14 2689.08 C 1461.25 2695.66 1447.58 2698.95 1433.11 2698.95 C 1404.05 2698.95 1380.9 2689.28 1363.67 2669.95 C 1346.58 2650.48 1338.03 2623.92 1338.03 2590.25 L 1338.03 2584.14 C 1338.03 2563.36 1341.84 2544.88 1349.47 2528.71 C 1357.1 2512.53 1368.01 2499.97 1382.22 2491.03 C 1396.55 2482.08 1413.45 2477.61 1432.91 2477.61 C 1456.85 2477.61 1476.71 2484.78 1492.49 2499.12 C 1508.4 2513.45 1516.88 2532.06 1517.94 2554.94 L 1483.41 2554.94 C 1482.36 2541.13 1477.1 2529.82 1467.63 2521.01 C 1458.3 2512.07 1446.72 2507.6 1432.91 2507.6 C 1414.37 2507.6 1399.97 2514.3 1389.71 2527.72 C 1379.59 2541 1374.52 2560.27 1374.52 2585.52 L 1374.52 2592.42 C 1374.52 2617.01 1379.59 2635.95 1389.71 2649.23 C 1399.84 2662.52 1414.31 2669.16 1433.11 2669.16 Z M 1608.48 2429.88 L 1608.48 2481.56 L 1648.33 2481.56 L 1648.33 2509.77 L 1608.48 2509.77 L 1608.48 2642.13 C 1608.48 2650.68 1610.26 2657.12 1613.81 2661.46 C 1617.36 2665.67 1623.41 2667.78 1631.96 2667.78 C 1636.16 2667.78 1641.95 2666.99 1649.31 2665.41 L 1649.31 2695 C 1639.71 2697.63 1630.38 2698.95 1621.3 2698.95 C 1605 2698.95 1592.7 2694.01 1584.41 2684.15 C 1576.13 2674.29 1571.99 2660.28 1571.99 2642.13 L 1571.99 2509.77 L 1533.12 2509.77 L 1533.12 2481.56 L 1571.99 2481.56 L 1571.99 2429.88 L 1608.48 2429.88 Z"/>
  </g>
</svg>